<svg width="128" height="123" viewBox="0 0 128 123" fill="none" xmlns="http://www.w3.org/2000/svg">
<path d="M38.6294 104C37.8581 104 37.227 103.753 36.7362 103.26C36.2454 102.767 36 102.132 36 101.357V32.6429C36 31.8676 36.2454 31.2333 36.7362 30.74C37.227 30.2467 37.8581 30 38.6294 30H65.975C72.8464 30 78.7012 31.1276 83.5392 33.3829C88.3773 35.5676 92.0935 38.8095 94.6878 43.1086C97.2821 47.3371 98.6845 52.5876 98.8948 58.86C98.965 61.961 99 64.6743 99 67C99 69.3257 98.965 72.0038 98.8948 75.0343C98.6144 81.5886 97.212 87.0152 94.6878 91.3143C92.2337 95.6133 88.6227 98.82 83.8548 100.934C79.1569 102.978 73.3723 104 66.5008 104H38.6294ZM54.8264 88.7771H65.975C68.99 88.7771 71.4791 88.3191 73.4424 87.4029C75.4758 86.4162 76.9833 84.901 77.9649 82.8571C79.0167 80.8133 79.5776 78.1352 79.6477 74.8229C79.788 72.7791 79.8581 70.9467 79.8581 69.3257C79.9282 67.7048 79.9282 66.0838 79.8581 64.4629C79.8581 62.8419 79.788 61.0448 79.6477 59.0714C79.5075 54.279 78.2454 50.7905 75.8614 48.6057C73.5476 46.3505 70.0768 45.2229 65.4491 45.2229H54.8264V88.7771Z" fill="#EE6C4D"/>
<path d="M2.5 44.5L17.5 41.5M17.5 41.5L30.5 34.5L32.5 33L44.5 21.5M17.5 41.5L32.5 50.5M44.5 21.5L32.5 50.5M44.5 21.5L57.5 58.5M44.5 21.5L70.5 47.5M32.5 50.5L56 58.5H57.5M57.5 58.5L70.5 47.5M70.5 47.5L96.5 2.5M70.5 47.5L85.5 41.5M96.5 2.5L85.5 41.5M96.5 2.5L111.5 54.5M85.5 41.5L98.5 55.5L111.5 54.5M111.5 54.5L124.5 40.5L125.5 60.5L111.5 54.5Z" stroke="#3D5A80"/>
<circle cx="2.5" cy="44.5" r="2.5" fill="#3D5A80"/>
<circle cx="17.5" cy="41.5" r="2.5" fill="#3D5A80"/>
<circle cx="30.5" cy="34.5" r="2.5" fill="#3D5A80"/>
<circle cx="44.5" cy="21.5" r="2.5" fill="#3D5A80"/>
<circle cx="32.5" cy="50.5" r="2.5" fill="#3D5A80"/>
<circle cx="57.5" cy="58.5" r="2.5" fill="#3D5A80"/>
<circle cx="70.5" cy="47.5" r="2.5" fill="#3D5A80"/>
<circle cx="85.5" cy="41.5" r="2.5" fill="#3D5A80"/>
<circle cx="96.5" cy="2.5" r="2.5" fill="#3D5A80"/>
<circle cx="98.5" cy="55.5" r="2.5" fill="#3D5A80"/>
<circle cx="111.5" cy="54.5" r="2.5" fill="#3D5A80"/>
<circle cx="124.5" cy="40.5" r="2.5" fill="#3D5A80"/>
<circle cx="125.5" cy="60.5" r="2.5" fill="#3D5A80"/>
<path d="M37.5 113.5L58.5 106.5M58.5 106.5L80.5 120.5L99.5 101.5L58.5 106.5Z" stroke="#3D5A80"/>
<circle cx="37.5" cy="113.5" r="2.5" fill="#3D5A80"/>
<circle cx="58.5" cy="106.5" r="2.5" fill="#3D5A80"/>
<circle cx="80.5" cy="120.5" r="2.5" fill="#3D5A80"/>
<circle cx="99.5" cy="101.5" r="2.5" fill="#3D5A80"/>
</svg>
