<svg width="99" height="36" viewBox="0 0 99 36" fill="none" xmlns="http://www.w3.org/2000/svg">
<path d="M10.5627 30.5934C10.3518 30.5934 10.1793 30.5232 10.0451 30.3828C9.91085 30.2425 9.84375 30.062 9.84375 29.8414V10.2885C9.84375 10.0679 9.91085 9.88745 10.0451 9.74707C10.1793 9.60669 10.3518 9.5365 10.5627 9.5365H18.04C19.9189 9.5365 21.5199 9.85737 22.8428 10.4991C24.1657 11.1208 25.1818 12.0433 25.8912 13.2666C26.6006 14.4698 26.984 15.9639 27.0416 17.7487C27.0607 18.6311 27.0703 19.4032 27.0703 20.065C27.0703 20.7267 27.0607 21.4888 27.0416 22.3511C26.9649 24.2162 26.5814 25.7603 25.8912 26.9837C25.2202 28.207 24.2328 29.1194 22.929 29.7211C21.6445 30.3026 20.0627 30.5934 18.1838 30.5934H10.5627ZM14.9916 26.2617H18.04C18.8644 26.2617 19.5451 26.1313 20.0819 25.8706C20.6379 25.5899 21.0501 25.1587 21.3185 24.5771C21.6061 23.9956 21.7595 23.2335 21.7787 22.291C21.817 21.7094 21.8362 21.188 21.8362 20.7267C21.8554 20.2655 21.8554 19.8042 21.8362 19.343C21.8362 18.8818 21.817 18.3704 21.7787 17.8089C21.7403 16.4452 21.3952 15.4525 20.7434 14.8308C20.1107 14.1891 19.1616 13.8682 17.8962 13.8682H14.9916V26.2617Z" fill="#EE6C4D"/>
<path d="M0.683594 13.6626L4.78516 12.809M4.78516 12.809L8.33984 10.8171L8.88672 10.3903L12.168 7.11793M4.78516 12.809L8.88672 15.37M12.168 7.11793L8.88672 15.37M12.168 7.11793L15.7227 17.6464M12.168 7.11793L19.2773 14.5163M8.88672 15.37L15.3125 17.6464H15.7227M15.7227 17.6464L19.2773 14.5163M19.2773 14.5163L26.3867 1.71143M19.2773 14.5163L23.3789 12.809M26.3867 1.71143L23.3789 12.809M26.3867 1.71143L30.4883 16.5082M23.3789 12.809L26.9336 16.7927L30.4883 16.5082M30.4883 16.5082L34.043 12.5244L34.3164 18.2155L30.4883 16.5082Z" stroke="#3D5A80"/>
<ellipse cx="0.683594" cy="13.6626" rx="0.683594" ry="0.711382" fill="#3D5A80"/>
<ellipse cx="4.78516" cy="12.8089" rx="0.683594" ry="0.711382" fill="#3D5A80"/>
<ellipse cx="8.33984" cy="10.8171" rx="0.683594" ry="0.711382" fill="#3D5A80"/>
<ellipse cx="12.168" cy="7.118" rx="0.683594" ry="0.711382" fill="#3D5A80"/>
<ellipse cx="8.88672" cy="15.3698" rx="0.683594" ry="0.711382" fill="#3D5A80"/>
<ellipse cx="15.7227" cy="17.6464" rx="0.683594" ry="0.711382" fill="#3D5A80"/>
<ellipse cx="19.2773" cy="14.5161" rx="0.683594" ry="0.711382" fill="#3D5A80"/>
<ellipse cx="23.3789" cy="12.8089" rx="0.683594" ry="0.711382" fill="#3D5A80"/>
<ellipse cx="26.3867" cy="1.71138" rx="0.683594" ry="0.711382" fill="#3D5A80"/>
<ellipse cx="26.9336" cy="16.7927" rx="0.683594" ry="0.711382" fill="#3D5A80"/>
<ellipse cx="30.4883" cy="16.5081" rx="0.683594" ry="0.711382" fill="#3D5A80"/>
<ellipse cx="34.043" cy="12.5244" rx="0.683594" ry="0.711382" fill="#3D5A80"/>
<ellipse cx="34.3164" cy="18.2154" rx="0.683594" ry="0.711382" fill="#3D5A80"/>
<path d="M10.2539 33.2966L15.9961 31.3047M15.9961 31.3047L22.0117 35.2885L27.207 29.882L15.9961 31.3047Z" stroke="#3D5A80"/>
<ellipse cx="10.2539" cy="33.297" rx="0.683594" ry="0.711382" fill="#3D5A80"/>
<ellipse cx="15.9961" cy="31.3048" rx="0.683594" ry="0.711382" fill="#3D5A80"/>
<ellipse cx="22.0117" cy="35.2887" rx="0.683594" ry="0.711382" fill="#3D5A80"/>
<ellipse cx="27.207" cy="29.882" rx="0.683594" ry="0.711382" fill="#3D5A80"/>
<path d="M36.744 30.24C35.096 30.24 33.784 29.736 32.808 28.728C31.832 27.704 31.296 26.312 31.2 24.552C31.184 24.344 31.176 24.08 31.176 23.76C31.176 23.424 31.184 23.152 31.2 22.944C31.264 21.808 31.528 20.816 31.992 19.968C32.456 19.104 33.088 18.44 33.888 17.976C34.704 17.512 35.656 17.28 36.744 17.28C37.96 17.28 38.976 17.536 39.792 18.048C40.624 18.56 41.256 19.288 41.688 20.232C42.12 21.176 42.336 22.28 42.336 23.544V23.952C42.336 24.128 42.28 24.264 42.168 24.36C42.072 24.456 41.944 24.504 41.784 24.504H33.48C33.48 24.52 33.48 24.552 33.48 24.6C33.48 24.648 33.48 24.688 33.48 24.72C33.512 25.376 33.656 25.992 33.912 26.568C34.168 27.128 34.536 27.584 35.016 27.936C35.496 28.288 36.072 28.464 36.744 28.464C37.32 28.464 37.8 28.376 38.184 28.2C38.568 28.024 38.88 27.832 39.12 27.624C39.36 27.4 39.52 27.232 39.6 27.12C39.744 26.912 39.856 26.792 39.936 26.76C40.016 26.712 40.144 26.688 40.32 26.688H41.472C41.632 26.688 41.76 26.736 41.856 26.832C41.968 26.912 42.016 27.032 42 27.192C41.984 27.432 41.856 27.728 41.616 28.08C41.376 28.416 41.032 28.752 40.584 29.088C40.136 29.424 39.592 29.704 38.952 29.928C38.312 30.136 37.576 30.24 36.744 30.24ZM33.48 22.848H40.056V22.776C40.056 22.056 39.92 21.416 39.648 20.856C39.392 20.296 39.016 19.856 38.52 19.536C38.024 19.2 37.432 19.032 36.744 19.032C36.056 19.032 35.464 19.2 34.968 19.536C34.488 19.856 34.12 20.296 33.864 20.856C33.608 21.416 33.48 22.056 33.48 22.776V22.848ZM49.6078 30C49.3678 30 49.1758 29.944 49.0318 29.832C48.9038 29.72 48.7998 29.576 48.7198 29.4L44.2798 18.264C44.2478 18.184 44.2318 18.104 44.2318 18.024C44.2318 17.88 44.2798 17.76 44.3758 17.664C44.4718 17.568 44.5918 17.52 44.7358 17.52H45.8878C46.0638 17.52 46.1998 17.568 46.2958 17.664C46.3918 17.76 46.4478 17.848 46.4638 17.928L50.1358 27.384L53.7838 17.928C53.8158 17.848 53.8718 17.76 53.9518 17.664C54.0478 17.568 54.1838 17.52 54.3598 17.52H55.5358C55.6638 17.52 55.7758 17.568 55.8718 17.664C55.9838 17.76 56.0398 17.88 56.0398 18.024C56.0398 18.104 56.0238 18.184 55.9918 18.264L51.5278 29.4C51.4638 29.576 51.3598 29.72 51.2158 29.832C51.0878 29.944 50.8958 30 50.6398 30H49.6078ZM63.5556 30.24C61.9076 30.24 60.5956 29.736 59.6196 28.728C58.6436 27.704 58.1076 26.312 58.0116 24.552C57.9956 24.344 57.9876 24.08 57.9876 23.76C57.9876 23.424 57.9956 23.152 58.0116 22.944C58.0756 21.808 58.3396 20.816 58.8036 19.968C59.2676 19.104 59.8996 18.44 60.6996 17.976C61.5156 17.512 62.4676 17.28 63.5556 17.28C64.7716 17.28 65.7876 17.536 66.6036 18.048C67.4356 18.56 68.0676 19.288 68.4996 20.232C68.9316 21.176 69.1476 22.28 69.1476 23.544V23.952C69.1476 24.128 69.0916 24.264 68.9796 24.36C68.8836 24.456 68.7556 24.504 68.5956 24.504H60.2916C60.2916 24.52 60.2916 24.552 60.2916 24.6C60.2916 24.648 60.2916 24.688 60.2916 24.72C60.3236 25.376 60.4676 25.992 60.7236 26.568C60.9796 27.128 61.3476 27.584 61.8276 27.936C62.3076 28.288 62.8836 28.464 63.5556 28.464C64.1316 28.464 64.6116 28.376 64.9956 28.2C65.3796 28.024 65.6916 27.832 65.9316 27.624C66.1716 27.4 66.3316 27.232 66.4116 27.12C66.5556 26.912 66.6676 26.792 66.7476 26.76C66.8276 26.712 66.9556 26.688 67.1316 26.688H68.2836C68.4436 26.688 68.5716 26.736 68.6676 26.832C68.7796 26.912 68.8276 27.032 68.8116 27.192C68.7956 27.432 68.6676 27.728 68.4276 28.08C68.1876 28.416 67.8436 28.752 67.3956 29.088C66.9476 29.424 66.4036 29.704 65.7636 29.928C65.1236 30.136 64.3876 30.24 63.5556 30.24ZM60.2916 22.848H66.8676V22.776C66.8676 22.056 66.7316 21.416 66.4596 20.856C66.2036 20.296 65.8276 19.856 65.3316 19.536C64.8356 19.2 64.2436 19.032 63.5556 19.032C62.8676 19.032 62.2756 19.2 61.7796 19.536C61.2996 19.856 60.9316 20.296 60.6756 20.856C60.4196 21.416 60.2916 22.056 60.2916 22.776V22.848ZM73.0492 30C72.8892 30 72.7532 29.952 72.6412 29.856C72.5452 29.744 72.4972 29.608 72.4972 29.448V18.096C72.4972 17.936 72.5452 17.8 72.6412 17.688C72.7532 17.576 72.8892 17.52 73.0492 17.52H74.1532C74.3132 17.52 74.4492 17.576 74.5612 17.688C74.6732 17.8 74.7292 17.936 74.7292 18.096V19.152C75.0492 18.608 75.4892 18.2 76.0492 17.928C76.6092 17.656 77.2812 17.52 78.0652 17.52H79.0252C79.1852 17.52 79.3132 17.576 79.4092 17.688C79.5052 17.784 79.5532 17.912 79.5532 18.072V19.056C79.5532 19.216 79.5052 19.344 79.4092 19.44C79.3132 19.536 79.1852 19.584 79.0252 19.584H77.5852C76.7212 19.584 76.0412 19.84 75.5452 20.352C75.0492 20.848 74.8012 21.528 74.8012 22.392V29.448C74.8012 29.608 74.7452 29.744 74.6332 29.856C74.5212 29.952 74.3852 30 74.2252 30H73.0492ZM82.6464 30C82.4864 30 82.3504 29.952 82.2384 29.856C82.1424 29.744 82.0944 29.608 82.0944 29.448V18.072C82.0944 17.912 82.1424 17.784 82.2384 17.688C82.3504 17.576 82.4864 17.52 82.6464 17.52H83.7984C83.9584 17.52 84.0864 17.576 84.1824 17.688C84.2784 17.784 84.3264 17.912 84.3264 18.072V29.448C84.3264 29.608 84.2784 29.744 84.1824 29.856C84.0864 29.952 83.9584 30 83.7984 30H82.6464ZM82.4544 15.192C82.2944 15.192 82.1584 15.144 82.0464 15.048C81.9504 14.936 81.9024 14.8 81.9024 14.64V13.344C81.9024 13.184 81.9504 13.056 82.0464 12.96C82.1584 12.848 82.2944 12.792 82.4544 12.792H83.9664C84.1264 12.792 84.2544 12.848 84.3504 12.96C84.4624 13.056 84.5184 13.184 84.5184 13.344V14.64C84.5184 14.8 84.4624 14.936 84.3504 15.048C84.2544 15.144 84.1264 15.192 83.9664 15.192H82.4544ZM88.9629 30C88.8029 30 88.6669 29.952 88.5549 29.856C88.4589 29.744 88.4109 29.608 88.4109 29.448V13.512C88.4109 13.352 88.4589 13.224 88.5549 13.128C88.6669 13.016 88.8029 12.96 88.9629 12.96H90.0909C90.2509 12.96 90.3789 13.016 90.4749 13.128C90.5869 13.224 90.6429 13.352 90.6429 13.512V21.864L95.3709 17.928C95.5629 17.768 95.7069 17.664 95.8029 17.616C95.9149 17.552 96.0909 17.52 96.3309 17.52H97.6029C97.7469 17.52 97.8669 17.568 97.9629 17.664C98.0589 17.76 98.1069 17.88 98.1069 18.024C98.1069 18.088 98.0829 18.16 98.0349 18.24C98.0029 18.32 97.9309 18.4 97.8189 18.48L92.2749 23.088L98.4189 29.064C98.6109 29.224 98.7069 29.368 98.7069 29.496C98.7069 29.64 98.6589 29.76 98.5629 29.856C98.4669 29.952 98.3469 30 98.2029 30H96.9549C96.7149 30 96.5389 29.976 96.4269 29.928C96.3149 29.864 96.1709 29.752 95.9949 29.592L90.6429 24.48V29.448C90.6429 29.608 90.5869 29.744 90.4749 29.856C90.3789 29.952 90.2509 30 90.0909 30H88.9629Z" fill="#E9ECEF"/>
</svg>
